<?xml version="1.0" encoding="UTF-8"?>
<svg id="Ebene_2" data-name="Ebene 2" xmlns="http://www.w3.org/2000/svg" viewBox="0 0 467.03 454.01">
  <defs>
    <style>
      .cls-1 {
        fill: #fff;
      }

      .cls-1, .cls-2 {
        stroke-width: 0px;
      }

      .cls-2 {
        fill: #e5242b;
      }
    </style>
  </defs>
  <rect class="cls-2" x="67.43" y="60.92" width="332.18" height="332.18" rx="30.98" ry="30.98" transform="translate(-92.12 231.61) rotate(-45)"/>
  <circle class="cls-1" cx="122.29" cy="286.31" r="23.52"/>
  <circle class="cls-1" cx="196.77" cy="286.31" r="23.52"/>
  <circle class="cls-1" cx="196.77" cy="157.68" r="23.52"/>
  <circle class="cls-1" cx="121.6" cy="157.68" r="23.52"/>
  <rect class="cls-1" x="112.19" y="173.47" width="20.19" height="108.03"/>
  <rect class="cls-1" x="104.41" y="276.21" width="108.03" height="20.19"/>
  <rect class="cls-1" x="201.35" y="213.81" width="150.26" height="20.19"/>
  <rect class="cls-1" x="186.67" y="167.98" width="20.19" height="108.03"/>
  <circle class="cls-1" cx="271" cy="286.31" r="23.52"/>
  <circle class="cls-1" cx="271" cy="157.68" r="23.52"/>
  <rect class="cls-1" x="260.9" y="164.64" width="20.19" height="108.03"/>
  <circle class="cls-1" cx="345.42" cy="286.31" r="23.52"/>
  <circle class="cls-1" cx="345.42" cy="157.68" r="23.52"/>
  <rect class="cls-1" x="335.32" y="164.64" width="20.19" height="108.03"/>
  <circle class="cls-1" cx="196.77" cy="221.99" r="23.52"/>
  <circle class="cls-1" cx="271.09" cy="221.99" r="23.52"/>
  <circle class="cls-1" cx="345.42" cy="221.99" r="23.52"/>
</svg>